<?xml version="1.0" ?>
<!DOCTYPE svg  PUBLIC '-//W3C//DTD SVG 1.1//EN'  'http://www.w3.org/Graphics/SVG/1.1/DTD/svg11.dtd'>
<svg enable-background="new 0 0 64 64" height="64px" id="Layer_1" version="1.1" viewBox="0 0 64 64" width="64px" xml:space="preserve" xmlns="http://www.w3.org/2000/svg" xmlns:xlink="http://www.w3.org/1999/xlink"><g>
<path fill="#fff" d="M49.7,24l0.5-1.2c0.3,0.1,0.6,0.1,0.9,0.1c1,0,2-0.4,2.7-1.1c0.8-0.7,1.2-1.7,1.3-2.8c0-1.1-0.3-2.1-1.1-2.9   c-0.8-0.8-1.8-1.3-2.9-1.3c-1,0-2,0.4-2.7,1.1c-1.6,1.5-1.7,4.1-0.2,5.7c0.1,0.1,0.2,0.2,0.3,0.2L47.6,24h-8.9   c3.7-2.5,5.7-5.9,5.7-10c0-6.8-5.6-12.4-12.4-12.4c-6.9,0-12.4,5.6-12.4,12.4c0,4.1,2,7.6,5.7,10h-8.6l-2.6-5.6   c1.1-0.7,1.7-1.9,1.7-3.3c0-2.2-1.8-4-4-4c-2.2,0-4,1.8-4,4c0,2.2,1.8,4,4,4c0.1,0,0.2,0,0.4,0l2.3,4.9h-0.1C10.2,24,7,27,7,31   c0,4,3.2,7,7.4,7h6.8l-5.5,13.6c-0.7,1.8-0.8,3.9,0,5.8c0.8,1.9,2.2,3.4,4,4.1c0.9,0.4,1.9,0.6,2.9,0.6c3,0,5.6-1.8,6.7-4.5   l2.6-6.3l2.6,6.4c1.1,2.8,3.8,4.6,6.8,4.6c1,0,1.9-0.2,2.8-0.6c1.8-0.7,3.2-2.2,3.9-4.1c0.8-2,0.8-4.2,0.1-6.1L42.8,38h6.8   c4.2,0,7.4-3,7.4-7C57,27,53.9,24.1,49.7,24z M49.7,17.5c0.4-0.3,0.9-0.5,1.4-0.5c0.6,0,1.1,0.2,1.5,0.6c0.4,0.4,0.6,0.9,0.5,1.4   c0,0.5-0.2,1-0.6,1.4c-0.8,0.7-2.1,0.7-2.8-0.1C48.8,19.5,48.9,18.2,49.7,17.5z M9.8,15.1c0-1.1,0.9-2,2-2c1.1,0,2,0.9,2,2   c0,1.1-0.9,2-2,2C10.7,17.1,9.8,16.2,9.8,15.1z M49.6,36h-8.3c-0.3,0-0.6,0.2-0.8,0.4c-0.2,0.3-0.2,0.6-0.1,0.9l6,15   c0.6,1.4,0.6,3-0.1,4.5c-0.6,1.4-1.6,2.5-2.9,3c-0.7,0.3-1.3,0.4-2,0.4c-2.2,0-4.2-1.3-5-3.4l-3.6-8.6c-0.2-0.4-0.5-0.6-0.9-0.6   c0,0,0,0,0,0c-0.4,0-0.8,0.2-0.9,0.6l-3.6,8.5c-0.8,2-2.7,3.2-4.9,3.2c-0.7,0-1.5-0.1-2.2-0.4c-1.3-0.5-2.4-1.6-2.9-3   c-0.6-1.4-0.6-2.9,0-4.3l6-15c0.1-0.3,0.1-0.7-0.1-0.9C23.3,36.2,23,36,22.7,36h-8.3C11.3,36,9,33.9,9,31s2.3-5,5.4-5h1l1.2,2.5   c0.2,0.4,0.5,0.6,0.9,0.6c0.1,0,0.3,0,0.4-0.1c0.5-0.2,0.7-0.8,0.5-1.3L17.6,26h11.7c0.5,0,0.9-0.3,1-0.8c0.1-0.5-0.2-0.9-0.6-1.1   c-3.1-1.2-8.2-4.1-8.2-10.1c0-5.7,4.7-10.4,10.4-10.4c5.8,0,10.4,4.7,10.4,10.4c0,5.7-4.4,8.6-8.2,10.1c-0.4,0.2-0.7,0.6-0.6,1.1   c0.1,0.5,0.5,0.8,1,0.8h12.2l-2.2,5.5c-0.2,0.5,0,1.1,0.6,1.3c0.1,0,0.2,0.1,0.4,0.1c0.4,0,0.8-0.2,0.9-0.6l2.5-6.3h0.7   c3.1,0,5.4,2.1,5.4,5S52.7,36,49.6,36z"/>
<path fill="#fff" d="M31.4,18c0.4-0.4,0.5-1,0.1-1.4l-2.1-2.4l2.1-2.4c0.4-0.4,0.3-1-0.1-1.4C31,10,30.4,10,30,10.4l-1.9,2.2l-1.9-2.2   c-0.4-0.4-1-0.5-1.4-0.1c-0.4,0.4-0.5,1-0.1,1.4l2.1,2.4l-2.1,2.4c-0.4,0.4-0.3,1,0.1,1.4c0.2,0.2,0.4,0.2,0.7,0.2   c0.3,0,0.6-0.1,0.8-0.3l1.9-2.2l1.9,2.2c0.2,0.2,0.5,0.3,0.8,0.3C31,18.3,31.2,18.2,31.4,18z"/>
<path fill="#fff" d="M34.8,16.5c0.2,0.2,0.4,0.2,0.7,0.2c0.3,0,0.6-0.1,0.8-0.3l1-1.2l1,1.2c0.2,0.2,0.5,0.3,0.8,0.3c0.2,0,0.5-0.1,0.7-0.2   c0.4-0.4,0.5-1,0.1-1.4l-1.2-1.4l1.2-1.4c0.4-0.4,0.3-1-0.1-1.4c-0.4-0.4-1-0.3-1.4,0.1l-1,1.2l-1-1.2c-0.4-0.4-1-0.5-1.4-0.1   c-0.4,0.4-0.5,1-0.1,1.4l1.2,1.4l-1.2,1.4C34.4,15.5,34.4,16.1,34.8,16.5z"/>
<path fill="#fff" d="M35.9,41.6l0.6-0.2c0.5-0.2,0.8-0.8,0.6-1.3c-0.2-0.5-0.8-0.8-1.3-0.6l-0.6,0.2l-1.4-4.2l0.6-0.2c0.5-0.2,0.8-0.8,0.6-1.3   c-0.2-0.5-0.8-0.8-1.3-0.6l-0.6,0.2l-1.2-3.6c-0.2-0.5-0.7-0.8-1.3-0.6c-0.5,0.2-0.8,0.8-0.6,1.3l1.3,3.6l-0.6,0.2   c-0.5,0.2-0.8,0.8-0.6,1.3c0.1,0.4,0.5,0.7,0.9,0.7c0.1,0,0.2,0,0.3-0.1l0.6-0.2l1.4,4.1l-0.6,0.2c-0.5,0.2-0.8,0.8-0.6,1.3   c0.1,0.4,0.5,0.7,0.9,0.7c0.1,0,0.2,0,0.3-0.1l0.6-0.2l1.2,3.6c0.1,0.4,0.5,0.7,0.9,0.7c0.1,0,0.2,0,0.3-0.1   c0.5-0.2,0.8-0.8,0.6-1.3L35.9,41.6z"/></g></svg>